<svg xmlns="http://www.w3.org/2000/svg" width="151" height="85" fill="none"><g clip-path="url(#a)" fill="#1D1D1D"><path d="M52.933 32.787s-.831 1.445-2.495 1.357c-1.663-.087-2.802-.437-2.67-2.363.131-1.927 1.226-6.041 1.05-7.705-.175-1.663-.831-8.01-.306-8.93.525-.92 2.758-1.75 3.72 0 .964 1.751 3.109 7.004 3.81 8.317.7 1.314 3.983 3.896 3.501 5.56-.481 1.663-2.889 2.582-3.72 1.663-.832-.92-2.058-6.347-3.109-5.866-1.05.438-.13 3.896-.087 4.947.087 1.094.963 2.276.306 3.02Zm16.722-5.209c-1.4-.744-2.189 2.67-4.771.394 0 0 4.333-3.72 4.727-5.034.394-1.313-2.451-5.647-6.872-3.808-4.421 1.838-1.445 8.536-.7 9.849.744 1.313 2.582 2.145 4.858 1.926 2.364-.263 4.159-2.539 2.758-3.327Zm-5.997-2.758c-1.007-.569-1.007-2.32-.306-3.239.7-.92 2.232-.438 2.976 0 .745.438.307 1.532-.394 2.583-.394.656-1.27 1.225-2.276.656Zm7.967-6.434c1.226-.22 1.751.525 1.663 1.225 0 0-.831 2.758 0 2.758.832 0 .92-4.815 3.327-5.122 2.452-.306 1.314 3.677 2.145 3.809.832.131 1.97-4.159 4.028-3.852 2.057.306 3.502 10.768.7 13.701 0 0-1.138.657-1.532-.876-.394-1.532.438-8.754-.394-8.973-.832-.22-1.663 8.317-4.115 8.098-2.451-.219-.219-7.398-1.663-6.873-1.445.526-1.139 7.18-3.196 7.31-2.057.132-3.02-10.855-.963-11.206Zm20.968-2.058c-1.138-1.926-2.758-2.232-4.115-1.62-.35.175-2.057 2.977-2.363 4.99-.307 2.014 1.75 5.516 3.808 5.341 2.057-.175 3.808-2.407 3.896-3.983.044-1.62-.088-2.846-1.226-4.728Zm-1.313 4.728c-.613 1.576-3.37.875-2.977-1.314.394-2.188 1.095-2.32 1.62-2.1.744.262 1.97 1.794 1.357 3.414ZM32.71 45.132c-1.444-2.408-3.502-2.846-5.209-2.014-.438.219-2.626 3.765-2.977 6.304-.394 2.539 2.233 7.004 4.816 6.74 2.626-.262 4.815-3.02 4.902-5.077.088-2.014-.087-3.546-1.532-5.953Zm-1.663 5.953c-.788 2.014-4.246 1.138-3.765-1.663.482-2.802 1.401-2.977 2.058-2.67.963.393 2.495 2.32 1.707 4.333ZM2.462 61.372C.667 61.328-.033 58.614.405 55.42c.437-3.196.043-10.375-.132-12.52-.175-2.145-.831-3.502 1.095-3.983 1.926-.482 4.465 2.145 5.209 5.428.744 3.283 2.057 5.34 2.976 5.165.92-.175 1.357-6.654 2.496-8.448 1.138-1.795 3.896-3.459 4.815-2.19.92 1.27 4.64 14.14 5.253 15.54.613 1.358 2.67 4.947 2.276 5.735-.394.745-2.232 2.495-3.677 1.226-1.445-1.313-3.108-7.004-3.677-9.543-.525-2.495-1.138-5.734-2.495-5.56-1.357.132-1.401 8.012-2.32 9.544-.92 1.532-3.283 2.276-3.896.7-.613-1.62-2.89-5.56-3.37-4.29-.482 1.27.087 1.62.13 2.583.044.963-.306 2.364.438 3.414.832 1.095.832 3.24-3.064 3.152Zm42.9-21.406c.918.963.218 2.058-1.927 3.502-2.145 1.445-6.873 4.815-3.72 9.324 3.151 4.509 6.74.832 8.01-.394 1.27-1.225 2.539-.044 1.138 2.583-1.357 2.626-8.536 4.334-12.126 0-3.589-4.334-1.225-9.368 1.62-12.3 2.846-3.021 5.34-4.466 7.004-2.715Z"></path><path d="M50.045 41.017c1.313 0 1.444.306 1.838 1.97.394 1.663-.437 2.451.745 1.62 1.181-.832 2.276-3.371 4.64-3.59 2.364-.219 2.758.744 2.32 1.62-.438.831-4.903 3.195-4.334 4.202.57 1.007 8.142 4.947 8.449 6.391.306 1.445-1.664 3.108-2.67 2.276-1.008-.831-7.005-5.34-7.399-4.946-.394.394-.043 3.195.394 3.896.438.7 1.226 2.845-1.663 3.152-2.89.306-3.896-14.665-3.59-15.715.35-1.095 1.27-.876 1.27-.876Zm25.915 6.391c-.7-3.72-5.823-3.196-5.823-3.196 3.896-4.727 4.51-7.222 3.065-9.06-1.445-1.84-6.041-2.759-7.924 0-1.926 2.757-1.05 7.09-.831 7.835.219.744-1.226 2.32-.657 3.283.394.7 1.357 3.72 2.276 6.566.92 2.802-2.232 1.97-.788 3.896 1.445 1.882 11.382-5.56 10.681-9.324Zm-8.843-5.078c-2.145-1.75.7-7.223 1.97-7.223s2.145 1.226 1.97 2.67c-.132 1.401-3.108 5.21-3.94 4.553Zm2.145 10.2c-1.445-.832-1.532-5.735-1.532-5.735.613-1.138 3.414-.394 4.29.744.875 1.139-1.313 5.822-2.758 4.99Zm19.567-8.711c.394-3.59.22-6.48-2.758-7.53-3.02-1.05-7.748 1.839-7.879 3.283 0 0-.306 1.357 1.138 1.926 1.445.526 5.253-2.45 6.26-1.838 1.007.613.131 2.276.131 2.276-1.926 0-8.404.832-8.448 6.435-.088 5.603 6.26 4.378 7.835 4.246 1.576-.131.175 2.102 2.452 1.883 2.276-.22.919-7.092 1.27-10.681Zm-3.283 6.347c-.394.394-5.734.744-5.34-1.751.394-2.495 1.313-2.89 5.34-3.633.963-.22.394 4.946 0 5.384ZM116.406 8.974l1.313-1.4 1.664 1.97 1.707-1.97 1.27 1.4.963-.92-2.277-2.494-1.663 1.926-1.62-1.926-2.32 2.495.963.919ZM111.854 2.802l1.401 1.62 1.4-1.62 1.051 1.138.832-.744-1.926-2.058-1.357 1.62-1.357-1.62-1.883 2.058.788.744 1.051-1.138ZM124.112 2.802l1.401 1.62 1.4-1.62 1.051 1.138.832-.744-1.926-2.058-1.357 1.62-1.357-1.62-1.883 2.058.788.744 1.051-1.138ZM138.162 0h1.313v2.802h-1.313V0ZM138.162 13.395h1.313v2.802h-1.313v-2.802ZM130.72 7.442h2.802v1.313h-2.802V7.442ZM144.115 7.442h2.802v1.313h-2.802V7.442ZM136.718 13.045l-1.138-.657-1.401 2.408 1.139.656 1.4-2.407ZM143.415 1.4l-1.138-.656-1.401 2.408 1.139.656 1.4-2.407ZM143.415 14.796l-1.4-2.408-1.139.657 1.401 2.407 1.138-.656ZM136.718 3.152l-1.4-2.408-1.139.657 1.401 2.407 1.138-.656ZM146.042 11.776l-2.363-1.445-.701 1.094 2.364 1.489.7-1.138ZM134.617 4.728l-2.364-1.445-.701 1.138 2.364 1.445.701-1.138ZM131.552 11.775l.701 1.139 2.364-1.489-.701-1.094-2.364 1.444ZM143.679 5.866l2.363-1.445-.7-1.138-2.364 1.445.701 1.138ZM138.689 11.775a3.678 3.678 0 1 0-.001-7.355 3.678 3.678 0 0 0 .001 7.355ZM102.31 24.12c-.526-5.91.394-10.2.394-10.2-6.917 3.196-6.917 12.345-6.917 12.345 2.758-5.078 6.523-2.145 6.523-2.145ZM117.851 20.924s-3.853-8.317-11.513-8.273c0 0 2.626 3.502 4.684 9.105 0 0 2.145-4.246 6.829-.832ZM105.681 21.756l2.145 9.149h1.357l-2.188-9.455a5.527 5.527 0 0 1 2.626.437s-2.67-9.761-5.121-8.492c-2.452 1.27-.92 10.112-.92 10.112.613-.92 1.357-1.445 2.101-1.75Z"></path><path d="M132.471 35.94h-17.16v-2.846h2.977V31.78h-16.503l-2.714-2.977-.963.875 3.108 3.371h2.933v2.845H95v1.314h37.471v-1.27Zm-27.009-2.846h8.536v2.845h-3.764v-1.4h-1.314v1.4h-3.502v-2.845h.044ZM145.91 35.939h3.809v1.313h-3.809V35.94Z"></path><path d="M149.938 20.968c-.613-.657-1.401-1.007-2.408-1.007s-1.838.35-2.451.963c-1.226 1.27-1.182 3.37-1.182 3.415l-.088 3.94h-8.623l.087-3.94s-.043-1.62.832-2.495c.394-.394.876-.57 1.488-.57.613 0 1.095.176 1.445.57.788.875.7 2.495.7 2.495l.657.044.657.043c0-.087.175-2.188-1.007-3.502-.613-.656-1.401-1.006-2.408-1.006s-1.838.35-2.451.963c-1.226 1.269-1.182 3.37-1.182 3.414l-.438 17.991 1.313.044.044-2.276h8.624l-.044 2.276 1.313.044.438-18.035s-.044-1.62.832-2.495c.394-.394.875-.57 1.488-.57s1.094.176 1.445.57c.788.875.7 2.495.7 2.495l1.313.131c-.044-.131.132-2.232-1.094-3.502Zm-6.172 8.624-.044 2.188h-8.624l.044-2.188h8.624Zm-.088 3.502-.044 2.188h-8.623l.043-2.188h8.624Zm-8.755 5.69.044-2.188h8.624l-.044 2.188h-8.624Z"></path><path d="M144.729 44.081c-2.32 0-3.196-1.094-3.24-1.138l-.525-.657-.525.657c-.044.044-1.007 1.182-3.327 1.182-2.32 0-3.196-1.094-3.239-1.138l-.526-.657-.525.657c-.044.044-1.007 1.182-3.327 1.182-2.32 0-3.195-1.095-3.239-1.138l-.525-.657-.526.657c-.044.043-1.007 1.181-3.327 1.181-2.32 0-3.195-1.094-3.239-1.138l-.525-.656-.526.656c-.043.044-1.006 1.182-3.326 1.182-2.321 0-3.196-1.094-3.24-1.138l-.525-.657-.525.657c-.044.044-1.007 1.182-3.327 1.182-2.32 0-3.196-1.094-3.24-1.138l-.525-.657-.525.657c-.044.044-1.007 1.182-3.327 1.182-2.32 0-3.196-1.095-3.24-1.138l-1.05.788c.044.087 1.27 1.663 4.29 1.663 1.97 0 3.196-.657 3.852-1.182.613.482 1.839 1.182 3.765 1.182 1.97 0 3.195-.657 3.852-1.182.613.482 1.838 1.182 3.765 1.182 1.969 0 3.195-.657 3.852-1.182.613.482 1.838 1.182 3.764 1.182 1.97 0 3.196-.657 3.853-1.182.612.482 1.838 1.182 3.764 1.182 1.97 0 3.196-.657 3.852-1.182.613.482 1.839 1.182 3.765 1.182 1.97 0 3.195-.657 3.852-1.182.613.482 1.839 1.182 3.765 1.182 3.02 0 4.29-1.576 4.377-1.663l-1.007-.832c-.087-.175-1.05.92-3.37.92ZM144.729 47.67c-2.32 0-3.196-1.094-3.24-1.137l-.525-.657-.525.657c-.044.043-1.007 1.181-3.327 1.181-2.32 0-3.196-1.094-3.239-1.138l-.526-.656-.525.656c-.044.044-1.007 1.182-3.327 1.182-2.32 0-3.195-1.094-3.239-1.138l-.525-.656-.526.656c-.044.044-1.007 1.182-3.327 1.182-2.32 0-3.195-1.094-3.239-1.138l-.525-.657-.526.657c-.043.044-1.006 1.182-3.326 1.182-2.321 0-3.196-1.094-3.24-1.138l-.525-.657-.525.657c-.044.044-1.007 1.182-3.327 1.182-2.32 0-3.196-1.095-3.24-1.139l-.525-.656-.525.657c-.044.043-1.007 1.181-3.327 1.181-2.32 0-3.196-1.094-3.24-1.138l-1.05.788c.044.088 1.27 1.664 4.29 1.664 1.97 0 3.196-.657 3.852-1.182.613.481 1.839 1.182 3.765 1.182 1.97 0 3.195-.657 3.852-1.182.613.481 1.838 1.182 3.765 1.182 1.969 0 3.195-.657 3.852-1.182.613.481 1.838 1.182 3.764 1.182 1.97 0 3.196-.657 3.853-1.182.612.481 1.838 1.182 3.764 1.182 1.97 0 3.196-.657 3.852-1.182.613.481 1.839 1.182 3.765 1.182 1.97 0 3.195-.657 3.852-1.182.613.481 1.839 1.182 3.765 1.182 3.02 0 4.29-1.576 4.377-1.664l-1.007-.831c-.087-.176-1.05.919-3.37.919ZM144.729 51.304c-2.32 0-3.196-1.095-3.24-1.138l-.525-.7-.525.656c-.044.044-1.007 1.182-3.327 1.182-2.32 0-3.196-1.095-3.239-1.138l-.526-.657-.525.657c-.044.044-1.007 1.182-3.327 1.182-2.32 0-3.195-1.095-3.239-1.139l-.525-.656-.526.657c-.044.043-1.007 1.181-3.327 1.181-2.32 0-3.195-1.094-3.239-1.138l-.525-.656-.526.656c-.043.044-1.006 1.182-3.326 1.182-2.321 0-3.196-1.094-3.24-1.138l-.525-.657-.525.657c-.044.044-1.007 1.182-3.327 1.182-2.32 0-3.196-1.094-3.24-1.138l-.525-.657-.525.657c-.044.044-1.007 1.182-3.327 1.182-2.32 0-3.196-1.095-3.24-1.138l-1.05.788c.044.087 1.27 1.663 4.29 1.663 1.97 0 3.196-.657 3.852-1.182.613.482 1.839 1.182 3.765 1.182 1.97 0 3.195-.657 3.852-1.182.613.482 1.838 1.182 3.765 1.182 1.969 0 3.195-.657 3.852-1.182.613.482 1.838 1.182 3.764 1.182 1.97 0 3.196-.657 3.853-1.182.612.482 1.838 1.182 3.764 1.182 1.97 0 3.196-.657 3.852-1.182.613.482 1.839 1.182 3.765 1.182 1.97 0 3.195-.657 3.852-1.182.613.482 1.839 1.182 3.765 1.182 3.02 0 4.29-1.576 4.377-1.663l-1.007-.832c-.087-.175-1.05.963-3.37.963ZM144.729 54.893c-2.32 0-3.196-1.094-3.24-1.138l-.525-.656-.525.656c-.044.044-1.007 1.182-3.327 1.182-2.32 0-3.196-1.094-3.239-1.138l-.526-.657-.525.657c-.044.044-1.007 1.182-3.327 1.182-2.32 0-3.195-1.094-3.239-1.138l-.525-.657-.526.657c-.044.044-1.007 1.182-3.327 1.182-2.32 0-3.195-1.095-3.239-1.138l-.525-.657-.526.657c-.043.043-1.006 1.181-3.326 1.181-2.321 0-3.196-1.094-3.24-1.138l-.525-.656-.525.656c-.044.044-1.007 1.182-3.327 1.182-2.32 0-3.196-1.094-3.24-1.138l-.525-.656-.525.656c-.044.044-1.007 1.182-3.327 1.182-2.32 0-3.196-1.094-3.24-1.138l-1.05.788c.044.087 1.27 1.663 4.29 1.663 1.97 0 3.196-.656 3.852-1.182.613.482 1.839 1.182 3.765 1.182 1.97 0 3.195-.656 3.852-1.182.613.482 1.838 1.182 3.765 1.182 1.969 0 3.195-.656 3.852-1.182.613.482 1.838 1.182 3.764 1.182 1.97 0 3.196-.656 3.853-1.182.612.482 1.838 1.182 3.764 1.182 1.97 0 3.196-.656 3.852-1.182.613.482 1.839 1.182 3.765 1.182 1.97 0 3.195-.656 3.852-1.182.613.482 1.839 1.182 3.765 1.182 3.02 0 4.29-1.576 4.377-1.663l-1.007-.832c-.087-.219-1.05.92-3.37.92ZM46.411 73.595c-1.007-.525-1.532 1.882-3.327.263 0 0 3.064-2.627 3.327-3.546.263-.92-1.707-3.94-4.815-2.67-3.108 1.27-1.007 5.997-.482 6.916.526.92 1.839 1.488 3.415 1.357 1.62-.175 2.889-1.795 1.882-2.32Zm-4.202-1.97c-.7-.394-.7-1.62-.22-2.276.482-.657 1.533-.307 2.102 0 .525.306.219 1.094-.263 1.795-.306.481-.919.875-1.62.481ZM76.353 67.423c-.744-1.226-1.795-1.489-2.67-1.05-.22.13-1.358 1.925-1.533 3.282-.219 1.314 1.138 3.633 2.495 3.502 1.358-.131 2.496-1.576 2.54-2.626.043-1.05-.088-1.839-.832-3.108Zm-.832 3.108c-.394 1.05-2.189.569-1.926-.876.263-1.444.744-1.532 1.05-1.4.482.218 1.27 1.225.876 2.276ZM59.106 68.123c-.657-1.226-1.62-1.532-2.496-1.182-.218.088-1.4 1.795-1.663 3.02-.263 1.226.875 3.503 2.145 3.503s2.495-1.358 2.583-2.32c.131-1.051.087-1.795-.57-3.021Zm-.964 2.89c-.437.962-2.144.437-1.794-.92.306-1.357.788-1.4 1.094-1.27.438.22 1.138 1.226.7 2.19ZM105.682 69.743c.306-1.839.35-3.327-1.138-3.984-1.489-.656-4.028.657-4.159 1.401 0 0-.219.7.525 1.007.744.306 2.802-1.05 3.283-.7.482.35 0 1.181 0 1.181-.963-.087-4.333.132-4.552 3.02-.22 2.89 3.064 2.452 3.852 2.452.788 0 0 1.094 1.182 1.05 1.138 0 .7-3.589 1.007-5.427Zm-1.883 3.151c-.218.175-2.976.175-2.67-1.094.263-1.27.788-1.444 2.846-1.663.481-.088 0 2.539-.176 2.757ZM36.562 69.174s-.22-2.19-.526-3.196c-.306-1.007 1.401-2.583 2.408-1.838 1.007.744.219 4.114.394 6.303.175 2.189.569 5.122.131 5.516-.438.394-2.583.744-2.583-.613 0-1.313.394-4.465.176-6.172ZM49.125 69.436c.569-.175.394-2.582.481-3.633.088-1.05 1.05-1.138 1.707-1.007.657.132 1.051-.262.657 1.664-.394 1.926-.744 2.976-.394 2.976s2.67-.831 2.714.7c.088 1.49-2.977.92-2.977.92s.088 2.276.395 3.852c.35 1.576.612 4.378-.526 4.378s-1.444-2.452-1.663-3.984c-.22-1.532-.088-4.027-.394-4.027-.35 0-1.839.788-2.276.087-.394-.787-.088-1.269 2.276-1.926Z"></path><path d="M60.2 70.837c.219-.875-1.05-2.057 0-2.802 1.05-.744 1.707-.787 1.838 0 .132.788-.394 2.102 0 2.058.394 0 1.795-3.984 3.59-3.152 1.795.876.613 2.276.656 3.152.088.832.745-1.795 2.54-2.452 1.794-.656 2.32.613 2.188 3.59-.131 2.977-.92 5.297-2.057 5.078-1.138-.219-1.138-.963-.657-2.408.482-1.444.482-3.677.132-3.764-.35-.088-1.051 1.357-1.445 2.582-.394 1.182-.788 2.277-1.97 2.058-1.182-.22-1.27-1.795-.613-4.29 0 0-.35-.088-.656.613-.35.656-1.401 4.596-2.977 4.027-1.62-.57-1.094-2.145-.57-4.29ZM79.548 68.999c.263-.876 1.007-.788 1.795-.35.788.437 1.707 1.181 2.451.35.745-.876-1.532-2.364-3.502-2.102-1.97.263-2.976 1.401-2.801 2.495.219 1.139 1.357 2.102 3.195 2.19 1.839.087 1.182 1.838-.35 1.706-1.532-.13-1.182-1.269-2.057-.919-.876.35-1.664 2.802 1.182 2.802 2.845 0 3.896-.876 4.158-2.408.263-1.532-.919-2.495-2.451-2.626-1.488-.132-1.62-1.138-1.62-1.138Z"></path><path d="M83.663 63.965c.394-1.051 1.795-1.27 2.057-.526.263.744-.612 5.122 0 5.253.613.132 1.664-1.182 2.452-1.182s1.795.963 1.27 1.182c-.526.219-2.715 1.4-2.408 1.489.35.043 4.246 2.582 3.896 3.239-.35.656-1.007 1.444-1.664 1.138-.656-.35-3.064-3.458-3.458-2.89-.394.57.788 3.153 0 3.547-.788.394-2.057.087-1.926-2.32.175-2.452-.613-7.836-.219-8.93ZM90.973 67.248c.307-1.095 1.839-1.095 2.32-.438.482.7 1.007 3.327 1.445 3.327.438 0 1.707-4.028 1.838-4.728.132-.657.263-1.138 1.401-1.05 1.138.087 1.795.612 1.532 1.313-.262.7-.919-.394-1.05 1.138-.132 1.532-2.408 6.872-3.633 6.829-1.226-.044-4.29-4.728-3.853-6.391ZM109.884 70.18c-.087-1.269-.613-2.1-.613-3.326s1.445-1.751 1.97-1.226c.525.525.131 1.576.613 1.707.481.131.788-1.313 1.795-1.532 1.007-.219 1.926.088 1.576 1.007-.351.92-3.24 2.232-3.24 2.977 0 .744 0 2.013.307 2.144.306.175 1.007 1.139-.701 2.364-1.707 1.27-1.532-1.05-1.707-4.115ZM116.844 65.453c1.182-.22 1.182 1.138 1.138 2.539-.087 1.4-.218 3.545 1.051 3.59 1.269.043 1.97-2.671 1.707-3.547-.262-.875-1.401-1.794-1.182-2.582.219-.788 2.802-1.05 3.196 2.451.394 3.502-2.32 5.91-4.29 5.778-1.97-.131-2.67-2.057-2.583-4.64.044-2.582-.087-3.37.963-3.59ZM106.47 72.02c.262-.789 1.795-1.402 2.407-.526.613.875.394 2.539-.875 2.889-1.226.306-1.926-1.27-1.532-2.364Z"></path></g><defs><clipPath id="a"><path fill="#fff" transform="translate(.01)" d="M0 0h150.979v84.31H0z"></path></clipPath></defs></svg>