<svg width="43" height="43" viewBox="0 0 43 43" fill="none" xmlns="http://www.w3.org/2000/svg">
<path d="M32.322 24.2771C31.5695 25.0116 31.1395 26.0687 31.247 27.1975C31.4082 29.1325 33.182 30.5479 35.117 30.5479H38.5212V32.68C38.5212 36.3887 35.4933 39.4167 31.7845 39.4167H13.6708C14.2262 38.9508 14.7099 38.3775 15.0862 37.7325C15.7491 36.6575 16.1253 35.3854 16.1253 34.0417C16.1253 30.0821 12.9182 26.875 8.95866 26.875C7.27449 26.875 5.71574 27.4663 4.47949 28.4517V20.6221C4.47949 16.9134 7.5074 13.8854 11.2161 13.8854H31.7845C35.4933 13.8854 38.5212 16.9134 38.5212 20.6221V23.2021H34.902C33.8987 23.2021 32.9849 23.5962 32.322 24.2771Z" stroke="#292D32" stroke-width="2" stroke-linecap="round" stroke-linejoin="round"/>
<path d="M4.47949 22.2346V14.0467C4.47949 11.9147 5.7874 10.0154 7.77615 9.26292L22.002 3.88792C24.2237 3.04583 26.6066 4.69422 26.6066 7.07714V13.8854" stroke="#292D32" stroke-width="2" stroke-linecap="round" stroke-linejoin="round"/>
<path d="M40.4182 25.0299V28.7208C40.4182 29.7062 39.6299 30.5124 38.6265 30.5482H35.1149C33.1799 30.5482 31.4061 29.1328 31.2449 27.1978C31.1374 26.0691 31.5673 25.012 32.3198 24.2774C32.9828 23.5966 33.8965 23.2024 34.8999 23.2024H38.6265C39.6299 23.2383 40.4182 24.0444 40.4182 25.0299Z" stroke="#292D32" stroke-width="2" stroke-linecap="round" stroke-linejoin="round"/>
<path d="M12.542 21.5H25.0837" stroke="#292D32" stroke-width="2" stroke-linecap="round" stroke-linejoin="round"/>
<path d="M16.1253 34.0417C16.1253 35.3854 15.7491 36.6575 15.0862 37.7325C14.7099 38.3775 14.2262 38.9508 13.6708 39.4167C12.4166 40.5454 10.7682 41.2083 8.95866 41.2083C6.34283 41.2083 4.06741 39.8108 2.83116 37.7325C2.16825 36.6575 1.79199 35.3854 1.79199 34.0417C1.79199 31.7842 2.83116 29.7596 4.47949 28.4517C5.71574 27.4663 7.27449 26.875 8.95866 26.875C12.9182 26.875 16.1253 30.0821 16.1253 34.0417Z" stroke="#292D32" stroke-width="2" stroke-miterlimit="10" stroke-linecap="round" stroke-linejoin="round"/>
<path d="M6.16602 34.0408L7.93975 35.8145L11.756 32.285" stroke="#292D32" stroke-width="2" stroke-linecap="round" stroke-linejoin="round"/>
</svg>
