<svg width="152" height="62" viewBox="0 0 152 62" fill="none" xmlns="http://www.w3.org/2000/svg">
<g clip-path="url(#clip0_4233_5310)">
<g clip-path="url(#clip1_4233_5310)">
<g clip-path="url(#clip2_4233_5310)">
<path d="M53.9137 32.7873C53.9137 32.7873 53.082 34.2319 51.4186 34.1444C49.7551 34.0568 48.617 33.7066 48.7483 31.7805C48.8797 29.8544 49.974 25.7396 49.7989 24.0762C49.6238 22.4127 48.9672 16.0654 49.4925 15.1461C50.0178 14.2269 52.2503 13.3952 53.2133 15.1461C54.1764 16.8971 56.3213 22.1501 57.0217 23.4633C57.7221 24.7766 61.0052 27.3593 60.5237 29.0227C60.0422 30.6862 57.6346 31.6054 56.8029 30.6862C55.9712 29.7669 54.7455 24.3388 53.6949 24.8204C52.6443 25.2581 53.5635 28.7163 53.6073 29.7669C53.6949 30.8613 54.5704 32.0432 53.9137 32.7873ZM70.6357 27.5782C69.2349 26.834 68.4469 30.2484 65.8642 27.9721C65.8642 27.9721 70.1979 24.2513 70.5919 22.938C70.9859 21.6248 68.1405 17.2911 63.7193 19.1296C59.298 20.9682 62.2747 27.6657 63.0189 28.9789C63.763 30.2922 65.6016 31.1239 67.8779 30.905C70.2417 30.6424 72.0365 28.3661 70.6357 27.5782ZM64.6385 24.8204C63.6317 24.2513 63.6317 22.5003 64.3321 21.581C65.0325 20.6618 66.5646 21.1433 67.3088 21.581C68.053 22.0188 67.6152 23.1131 66.9148 24.1637C66.5208 24.8204 65.6453 25.3894 64.6385 24.8204ZM72.6055 18.3855C73.8312 18.1666 74.3565 18.9108 74.269 19.6112C74.269 19.6112 73.4372 22.369 74.269 22.369C75.1007 22.369 75.1882 17.5538 77.5958 17.2473C80.0472 16.9409 78.9091 20.9244 79.7408 21.0557C80.5725 21.1871 81.7107 16.8971 83.7681 17.2036C85.8255 17.51 87.27 27.9721 84.4685 30.905C84.4685 30.905 83.3303 31.5616 82.9363 30.0295C82.5424 28.4974 83.3741 21.2746 82.5424 21.0557C81.7107 20.8369 80.8789 29.3729 78.4276 29.154C75.9762 28.9352 78.2087 21.7561 76.7641 22.2814C75.3196 22.8067 75.626 29.4605 73.5686 29.5918C71.5112 29.7231 70.5481 18.7357 72.6055 18.3855ZM93.5736 16.3281C92.4354 14.402 90.8158 14.0956 89.4588 14.7084C89.1086 14.8835 87.4014 17.6851 87.0949 19.6987C86.7885 21.7123 88.8459 25.2143 90.9033 25.0392C92.9607 24.8641 94.7117 22.6316 94.7993 21.0557C94.8431 19.4361 94.7117 18.2104 93.5736 16.3281ZM92.2603 21.0557C91.6475 22.6316 88.8897 21.9312 89.2837 19.7425C89.6776 17.5538 90.378 17.4224 90.9033 17.6413C91.6475 17.904 92.8732 19.4361 92.2603 21.0557Z" fill="#FFF2F2"/>
<path d="M33.6907 45.1317C32.2462 42.7241 30.1888 42.2863 28.4815 43.118C28.0438 43.3369 25.8551 46.8827 25.5049 49.4216C25.1109 51.9605 27.7374 56.4255 30.3201 56.1629C32.9466 55.9002 35.1353 53.1424 35.2228 51.085C35.3104 49.0714 35.1353 47.5393 33.6907 45.1317ZM32.0273 51.085C31.2394 53.0987 27.7812 52.2232 28.2627 49.4216C28.7442 46.62 29.6635 46.4449 30.3201 46.7513C31.2831 47.1453 32.8152 49.0714 32.0273 51.085ZM3.44244 61.3721C1.64768 61.3283 0.947285 58.6143 1.38503 55.4187C1.82278 52.2232 1.42881 45.0441 1.25371 42.8992C1.07861 40.7542 0.421989 39.3972 2.34807 38.9157C4.27416 38.4341 6.81309 41.0606 7.55726 44.3437C8.30143 47.6268 9.61467 49.6842 10.5339 49.5091C11.4532 49.334 11.891 42.8554 13.0291 41.0606C14.1672 39.2659 16.925 37.6024 17.8443 38.8719C18.7636 40.1414 22.4844 53.0111 23.0973 54.4119C23.7101 55.7689 25.7675 59.3584 25.3735 60.1464C24.9796 60.8905 23.141 62.6415 21.6965 61.3721C20.2519 60.0588 18.5885 54.3681 18.0194 51.8292C17.4941 49.334 16.8813 46.0947 15.5242 46.2698C14.1672 46.4011 14.1235 54.2806 13.2042 55.8127C12.2849 57.3448 9.92109 58.089 9.30825 56.5131C8.6954 54.8934 6.41912 50.9537 5.9376 52.2232C5.45608 53.4926 6.02515 53.8428 6.06892 54.8059C6.1127 55.7689 5.7625 57.1697 6.50667 58.2203C7.33839 59.3147 7.33839 61.4596 3.44244 61.3721ZM46.3416 39.9663C47.2609 40.9293 46.5605 42.0237 44.4155 43.4682C42.2706 44.9128 37.5429 48.2834 40.6947 52.7922C43.8465 57.301 47.436 53.624 48.7054 52.3983C49.9749 51.1726 51.2444 52.3545 49.8436 54.981C48.4866 57.6075 41.3075 59.3147 37.718 54.981C34.1285 50.6473 36.4923 45.6132 39.3377 42.6803C42.183 39.6598 44.6782 38.2153 46.3416 39.9663Z" fill="#FFF2F2"/>
<path d="M51.0253 41.017C52.3386 41.017 52.4699 41.3234 52.8639 42.9868C53.2579 44.6503 52.4261 45.4382 53.608 44.6065C54.79 43.7748 55.8843 41.2359 58.2482 41.017C60.612 40.7981 61.006 41.7612 60.5682 42.6366C60.1305 43.4684 55.6655 45.8322 56.2345 46.839C56.8036 47.8458 64.3766 51.7855 64.683 53.2301C64.9895 54.6747 63.0196 56.3381 62.0128 55.5064C61.006 54.6747 55.0088 50.1659 54.6149 50.5599C54.2209 50.9538 54.5711 53.7554 55.0088 54.4558C55.4466 55.1562 56.2345 57.3012 53.3454 57.6076C50.4563 57.914 49.4495 42.9431 49.7559 41.8925C50.1061 40.7981 51.0253 41.017 51.0253 41.017ZM76.9399 47.4081C76.2395 43.6872 71.1179 44.2125 71.1179 44.2125C75.0139 39.4849 75.6267 36.9897 74.1821 35.1512C72.7376 33.3126 68.1412 32.3934 66.2589 35.1512C64.3328 37.909 65.2083 42.2427 65.4272 42.9868C65.6461 43.731 64.2015 45.3069 64.7706 46.2699C65.1646 46.9703 66.1276 49.9908 67.0469 52.8361C67.9661 55.6377 64.8144 54.806 66.2589 56.7321C67.7035 58.6144 77.6403 51.1727 76.9399 47.4081ZM68.0975 42.3302C65.9525 40.5792 68.7979 35.1074 70.0673 35.1074C71.3368 35.1074 72.2123 36.3331 72.0372 37.7777C71.9059 39.1784 68.9292 42.9868 68.0975 42.3302ZM70.2424 52.5297C68.7979 51.698 68.7103 46.7952 68.7103 46.7952C69.3231 45.6571 72.1247 46.4013 73.0002 47.5394C73.8757 48.6775 71.687 53.3614 70.2424 52.5297ZM89.8097 43.8186C90.2037 40.229 90.0286 37.3399 87.0519 36.2893C84.0314 35.2387 79.3038 38.1279 79.1725 39.5724C79.1725 39.5724 78.866 40.9294 80.3106 41.4985C81.7552 42.0238 85.5636 39.0471 86.5704 39.66C87.5772 40.2728 86.7017 41.9363 86.7017 41.9363C84.7756 41.9363 78.297 42.768 78.2532 48.3711C78.1656 53.9743 84.513 52.7486 86.0888 52.6173C87.6647 52.4859 86.2639 54.7185 88.5402 54.4996C90.8165 54.2807 89.4595 47.4081 89.8097 43.8186ZM86.5266 50.1659C86.1326 50.5599 80.7921 50.9101 81.1861 48.4149C81.5801 45.9197 82.4993 45.5258 86.5266 44.7816C87.4896 44.5627 86.9206 49.7281 86.5266 50.1659Z" fill="#FFF2F2"/>
<path d="M117.387 8.97399L118.7 7.5732L120.363 9.54306L122.071 7.5732L123.34 8.97399L124.303 8.05473L122.027 5.55957L120.363 7.48566L118.744 5.55957L116.424 8.05473L117.387 8.97399Z" fill="#FFF2F2"/>
<path d="M112.834 2.80162L114.235 4.42128L115.636 2.80162L116.687 3.93976L117.518 3.19559L115.592 1.13818L114.235 2.75785L112.878 1.13818L110.996 3.19559L111.784 3.93976L112.834 2.80162Z" fill="#FFF2F2"/>
<path d="M125.092 2.80162L126.493 4.42128L127.894 2.80162L128.944 3.93976L129.776 3.19559L127.85 1.13818L126.493 2.75785L125.136 1.13818L123.254 3.19559L124.042 3.93976L125.092 2.80162Z" fill="#FFF2F2"/>
<path d="M139.142 0H140.456V2.80158H139.142V0Z" fill="#FFF2F2"/>
<path d="M139.142 13.395H140.456V16.1966H139.142V13.395Z" fill="#FFF2F2"/>
<path d="M131.701 7.44189H134.503V8.75513H131.701V7.44189Z" fill="#FFF2F2"/>
<path d="M145.095 7.44189H147.897V8.75513H145.095V7.44189Z" fill="#FFF2F2"/>
<path d="M137.699 13.0448L136.561 12.3882L135.16 14.7958L136.298 15.4524L137.699 13.0448Z" fill="#FFF2F2"/>
<path d="M144.396 1.40076L143.258 0.744141L141.857 3.15175L142.995 3.80837L144.396 1.40076Z" fill="#FFF2F2"/>
<path d="M144.396 14.7958L142.995 12.3882L141.857 13.0448L143.258 15.4524L144.396 14.7958Z" fill="#FFF2F2"/>
<path d="M137.699 3.15175L136.298 0.744141L135.16 1.40076L136.561 3.80837L137.699 3.15175Z" fill="#FFF2F2"/>
<path d="M147.023 11.7756L144.659 10.3311L143.959 11.4254L146.323 12.9138L147.023 11.7756Z" fill="#FFF2F2"/>
<path d="M135.597 4.72777L133.233 3.2832L132.533 4.42134L134.897 5.86591L135.597 4.72777Z" fill="#FFF2F2"/>
<path d="M132.533 11.7754L133.233 12.9135L135.597 11.4252L134.897 10.3308L132.533 11.7754Z" fill="#FFF2F2"/>
<path d="M144.659 5.86591L147.023 4.42134L146.323 3.2832L143.959 4.72777L144.659 5.86591Z" fill="#FFF2F2"/>
<path d="M139.669 11.7755C141.7 11.7755 143.346 10.1292 143.346 8.09846C143.346 6.06767 141.7 4.42139 139.669 4.42139C137.638 4.42139 135.992 6.06767 135.992 8.09846C135.992 10.1292 137.638 11.7755 139.669 11.7755Z" fill="#FFF2F2"/>
<path d="M103.29 24.1199C102.765 18.2103 103.684 13.9204 103.684 13.9204C96.7676 17.116 96.7676 26.2649 96.7676 26.2649C99.5254 21.187 103.29 24.1199 103.29 24.1199Z" fill="#FFF2F2"/>
<path d="M118.831 20.9245C118.831 20.9245 114.979 12.6073 107.318 12.6511C107.318 12.6511 109.945 16.153 112.002 21.7562C112.002 21.7562 114.147 17.51 118.831 20.9245Z" fill="#FFF2F2"/>
<path d="M106.662 21.7561L108.807 30.905H110.164L107.975 21.4497C109.42 21.3184 110.602 21.8874 110.602 21.8874C110.602 21.8874 107.931 12.1257 105.48 13.3951C103.029 14.6646 104.561 23.5071 104.561 23.5071C105.174 22.5878 105.918 22.0625 106.662 21.7561Z" fill="#FFF2F2"/>
<path d="M133.452 35.9392H116.292V33.0939H119.269V31.7806H102.766L100.052 28.804L99.0885 29.6794L102.196 33.0501H105.129V35.8954H95.9805V37.2087H133.452V35.9392ZM106.443 33.0939H114.979V35.9392H111.214V34.5384H109.901V35.9392H106.399V33.0939H106.443Z" fill="#FFF2F2"/>
<path d="M146.891 35.939H150.699V37.2522H146.891V35.939Z" fill="#FFF2F2"/>
<path d="M150.918 20.9681C150.306 20.3115 149.518 19.9613 148.511 19.9613C147.504 19.9613 146.672 20.3115 146.059 20.9243C144.834 22.1938 144.877 24.2949 144.877 24.3387L144.79 28.2784H136.166L136.254 24.3387C136.254 24.3387 136.21 22.7191 137.086 21.8436C137.48 21.4496 137.961 21.2745 138.574 21.2745C139.187 21.2745 139.668 21.4496 140.018 21.8436C140.806 22.7191 140.719 24.3387 140.719 24.3387L141.375 24.3825L142.032 24.4263C142.032 24.3387 142.207 22.2375 141.025 20.9243C140.412 20.2677 139.624 19.9175 138.618 19.9175C137.611 19.9175 136.779 20.2677 136.166 20.8805C134.941 22.15 134.984 24.2512 134.984 24.2949L134.547 42.2863L135.86 42.3301L135.904 40.0538H144.527L144.483 42.3301L145.797 42.3739L146.234 24.3387C146.234 24.3387 146.191 22.7191 147.066 21.8436C147.46 21.4496 147.942 21.2745 148.555 21.2745C149.167 21.2745 149.649 21.4496 149.999 21.8436C150.787 22.7191 150.699 24.3387 150.699 24.3387L152.013 24.47C151.969 24.3387 152.144 22.2375 150.918 20.9681ZM144.746 29.5917L144.702 31.7804H136.079L136.123 29.5917H144.746ZM144.659 33.0937L144.615 35.2824H135.991L136.035 33.0937H144.659ZM135.904 38.7844L135.947 36.5956H144.571L144.527 38.7844H135.904Z" fill="#FFF2F2"/>
<path d="M145.709 44.0811C143.389 44.0811 142.514 42.9868 142.47 42.943L141.945 42.2864L141.419 42.943C141.375 42.9868 140.412 44.1249 138.092 44.1249C135.772 44.1249 134.897 43.0305 134.853 42.9868L134.328 42.3302L133.802 42.9868C133.759 43.0305 132.796 44.1687 130.476 44.1687C128.156 44.1687 127.28 43.0743 127.236 43.0305L126.711 42.3739L126.186 43.0305C126.142 43.0743 125.179 44.2125 122.859 44.2125C120.539 44.2125 119.663 43.1181 119.619 43.0743L119.094 42.4177L118.569 43.0743C118.525 43.1181 117.562 44.2562 115.242 44.2562C112.922 44.2562 112.046 43.1619 112.003 43.1181L111.477 42.4615L110.952 43.1181C110.908 43.1619 109.945 44.3 107.625 44.3C105.305 44.3 104.43 43.2056 104.386 43.1619L103.861 42.5053L103.335 43.1619C103.292 43.2056 102.328 44.3438 100.008 44.3438C97.6884 44.3438 96.8129 43.2494 96.7691 43.2056L95.7185 43.9936C95.7623 44.0811 96.988 45.657 100.008 45.657C101.978 45.657 103.204 45.0004 103.861 44.4751C104.473 44.9566 105.699 45.657 107.625 45.657C109.595 45.657 110.821 45.0004 111.477 44.4751C112.09 44.9566 113.316 45.657 115.242 45.657C117.212 45.657 118.438 45.0004 119.094 44.4751C119.707 44.9566 120.933 45.657 122.859 45.657C124.829 45.657 126.054 45.0004 126.711 44.4751C127.324 44.9566 128.55 45.657 130.476 45.657C132.445 45.657 133.671 45.0004 134.328 44.4751C134.941 44.9566 136.166 45.657 138.092 45.657C140.062 45.657 141.288 45.0004 141.945 44.4751C142.557 44.9566 143.783 45.657 145.709 45.657C148.73 45.657 149.999 44.0811 150.087 43.9936L149.08 43.1619C148.992 42.9868 148.029 44.0811 145.709 44.0811Z" fill="#FFF2F2"/>
<path d="M145.709 47.6707C143.389 47.6707 142.514 46.5764 142.47 46.5326L141.945 45.876L141.419 46.5326C141.375 46.5764 140.412 47.7145 138.092 47.7145C135.772 47.7145 134.897 46.6201 134.853 46.5764L134.328 45.9198L133.802 46.5764C133.759 46.6201 132.796 47.7583 130.476 47.7583C128.156 47.7583 127.28 46.6639 127.236 46.6201L126.711 45.9635L126.186 46.6201C126.142 46.6639 125.179 47.8021 122.859 47.8021C120.539 47.8021 119.663 46.7077 119.619 46.6639L119.094 46.0073L118.569 46.6639C118.525 46.7077 117.562 47.8458 115.242 47.8458C112.922 47.8458 112.046 46.7515 112.003 46.7077L111.477 46.0511L110.952 46.7077C110.908 46.7515 109.945 47.8896 107.625 47.8896C105.305 47.8896 104.43 46.7952 104.386 46.7515L103.861 46.0948L103.335 46.7515C103.292 46.7952 102.328 47.9334 100.008 47.9334C97.6884 47.9334 96.8129 46.839 96.7691 46.7952L95.7185 47.5832C95.7623 47.6707 96.988 49.2466 100.008 49.2466C101.978 49.2466 103.204 48.59 103.861 48.0647C104.473 48.5462 105.699 49.2466 107.625 49.2466C109.595 49.2466 110.821 48.59 111.477 48.0647C112.09 48.5462 113.316 49.2466 115.242 49.2466C117.212 49.2466 118.438 48.59 119.094 48.0647C119.707 48.5462 120.933 49.2466 122.859 49.2466C124.829 49.2466 126.054 48.59 126.711 48.0647C127.324 48.5462 128.55 49.2466 130.476 49.2466C132.445 49.2466 133.671 48.59 134.328 48.0647C134.941 48.5462 136.166 49.2466 138.092 49.2466C140.062 49.2466 141.288 48.59 141.945 48.0647C142.557 48.5462 143.783 49.2466 145.709 49.2466C148.73 49.2466 149.999 47.6707 150.087 47.5832L149.08 46.7515C148.992 46.5764 148.029 47.6707 145.709 47.6707Z" fill="#FFF2F2"/>
<path d="M145.709 51.3039C143.389 51.3039 142.514 50.2095 142.47 50.1657L141.945 49.4653L141.419 50.122C141.375 50.1657 140.412 51.3039 138.092 51.3039C135.772 51.3039 134.897 50.2095 134.853 50.1657L134.328 49.5091L133.802 50.1657C133.759 50.2095 132.796 51.3476 130.476 51.3476C128.156 51.3476 127.28 50.2533 127.236 50.2095L126.711 49.5529L126.186 50.2095C126.142 50.2533 125.179 51.3914 122.859 51.3914C120.539 51.3914 119.663 50.2971 119.619 50.2533L119.094 49.5967L118.569 50.2533C118.525 50.2971 117.562 51.4352 115.242 51.4352C112.922 51.4352 112.046 50.3408 112.003 50.2971L111.477 49.6404L110.952 50.2971C110.908 50.3408 109.945 51.479 107.625 51.479C105.305 51.479 104.43 50.3846 104.386 50.3408L103.861 49.6842L103.335 50.3408C103.292 50.3846 102.328 51.5227 100.008 51.5227C97.6884 51.5227 96.8129 50.4284 96.7691 50.3846L95.7185 51.1725C95.7623 51.2601 96.988 52.836 100.008 52.836C101.978 52.836 103.204 52.1794 103.861 51.6541C104.473 52.1356 105.699 52.836 107.625 52.836C109.595 52.836 110.821 52.1794 111.477 51.6541C112.09 52.1356 113.316 52.836 115.242 52.836C117.212 52.836 118.438 52.1794 119.094 51.6541C119.707 52.1356 120.933 52.836 122.859 52.836C124.829 52.836 126.054 52.1794 126.711 51.6541C127.324 52.1356 128.55 52.836 130.476 52.836C132.445 52.836 133.671 52.1794 134.328 51.6541C134.941 52.1356 136.166 52.836 138.092 52.836C140.062 52.836 141.288 52.1794 141.945 51.6541C142.557 52.1356 143.783 52.836 145.709 52.836C148.73 52.836 149.999 51.2601 150.087 51.1725L149.08 50.3408C148.992 50.1657 148.029 51.3039 145.709 51.3039Z" fill="#FFF2F2"/>
<path d="M145.709 54.8934C143.389 54.8934 142.514 53.799 142.47 53.7553L141.945 53.0986L141.419 53.7553C141.375 53.799 140.412 54.9372 138.092 54.9372C135.772 54.9372 134.897 53.8428 134.853 53.799L134.328 53.1424L133.802 53.799C133.759 53.8428 132.796 54.9809 130.476 54.9809C128.156 54.9809 127.28 53.8866 127.236 53.8428L126.711 53.1862L126.186 53.8428C126.142 53.8866 125.179 55.0247 122.859 55.0247C120.539 55.0247 119.663 53.9303 119.619 53.8866L119.094 53.23L118.569 53.8866C118.525 53.9303 117.562 55.0685 115.242 55.0685C112.922 55.0685 112.046 53.9741 112.003 53.9303L111.477 53.2737L110.952 53.9303C110.908 53.9741 109.945 55.1123 107.625 55.1123C105.305 55.1123 104.43 54.0179 104.386 53.9741L103.861 53.3175L103.335 53.9741C103.292 54.0179 102.328 55.156 100.008 55.156C97.6884 55.156 96.8129 54.0617 96.7691 54.0179L95.7185 54.8058C95.7623 54.8934 96.988 56.4693 100.008 56.4693C101.978 56.4693 103.204 55.8127 103.861 55.2874C104.473 55.7689 105.699 56.4693 107.625 56.4693C109.595 56.4693 110.821 55.8127 111.477 55.2874C112.09 55.7689 113.316 56.4693 115.242 56.4693C117.212 56.4693 118.438 55.8127 119.094 55.2874C119.707 55.7689 120.933 56.4693 122.859 56.4693C124.829 56.4693 126.054 55.8127 126.711 55.2874C127.324 55.7689 128.55 56.4693 130.476 56.4693C132.445 56.4693 133.671 55.8127 134.328 55.2874C134.941 55.7689 136.166 56.4693 138.092 56.4693C140.062 56.4693 141.288 55.8127 141.945 55.2874C142.557 55.7689 143.783 56.4693 145.709 56.4693C148.73 56.4693 149.999 54.8934 150.087 54.8058L149.08 53.9741C148.992 53.7553 148.029 54.8934 145.709 54.8934Z" fill="#FFF2F2"/>
</g>
</g>
</g>
<defs>
<clipPath id="clip0_4233_5310">
<rect width="150.384" height="62" fill="white" transform="translate(0.980469)"/>
</clipPath>
<clipPath id="clip1_4233_5310">
<rect width="151" height="84.31" fill="white" transform="translate(0.980469)"/>
</clipPath>
<clipPath id="clip2_4233_5310">
<rect width="150.979" height="84.31" fill="white" transform="translate(0.990234)"/>
</clipPath>
</defs>
</svg>
